#!OML:ASF H:\Terrain\Patient Classification 1\Animal2\Wednesday\Animal2.ASF
:FULLY-SPECIFIED
:DEGREES
2047
root -0.465965 16.0728 2.04082 -4.57583 8.2339 5.92715
lowerback 4.29148 2.0521 3.86494
upperback 1.16273 2.92206 1.48333
thorax -1.09262 1.45481 -0.78778
lowerneck 20.6464 16.0682 20.9337
upperneck -13.8843 24.3146 -25.2682
head -1.45531 13.3814 -11.8705
rclavicle 5.89397e-014 -3.65764e-014
rhumerus -39.8334 -6.02788 -79.7017
rradius 117.8
rwrist -14.4438
rhand -5.72702 1.68511
rfingers 7.12502
rthumb 20.0948 -27.2957
lclavicle 5.89397e-014 -3.65764e-014
lhumerus -53.1588 13.3631 64.2871
lradius 128.546
lwrist 86.1489
lhand -40.8072 41.5884
lfingers 7.12502
lthumb -13.7458 71.1143
rfemur -3.55835 8.46275 4.93305
rtibia 51.5957
rfoot -36.0759 -21.6417
rtoes -11.5815
lfemur -12.997 -14.9604 -2.51728
ltibia 31.3346
lfoot -27.8959 -22.5007
ltoes -40.3893
2048
root -0.466281 16.0777 2.04366 -4.44821 8.39741 5.71261
lowerback 3.82998 2.12818 4.07972
upperback 1.32266 3.00305 1.64375
thorax -0.664404 1.50437 -0.72236
lowerneck 20.1693 16.154 20.1969
upperneck -13.8862 24.1833 -24.7389
head -1.58526 13.2737 -11.5885
rclavicle 2.10712e-014 6.36111e-015
rhumerus -39.5522 -6.00854 -79.5846
rradius 117.766
rwrist -14.288
rhand -5.45624 1.58397
rfingers 7.12502
rthumb 20.355 -27.3693
lclavicle 2.10712e-014 6.36111e-015
lhumerus -53.0879 13.5379 64.415
lradius 128.696
lwrist 86.231
lhand -40.9871 41.5003
lfingers 7.12502
lthumb -13.9192 71.0144
rfemur -3.60562 8.22632 5.15461
rtibia 51.5765
rfoot -36.0386 -21.7124
rtoes -11.5499
lfemur -13.2989 -14.979 -2.2067
ltibia 31.4346
lfoot -28.0234 -22.5647
ltoes -39.821
2049
root -0.476301 16.0854 2.0493 -4.53961 8.69481 5.30442
lowerback 3.66149 2.1153 4.49691
upperback 1.41154 2.98911 1.82527
thorax -0.46733 1.50258 -0.757781
lowerneck 20.0079 16.1074 20.4193
upperneck -13.6673 24.1604 -25.098
head -1.41937 13.2844 -11.6859
rclavicle -4.46272e-014 -3.18055e-014
rhumerus -39.3899 -5.848 -79.5424
rradius 117.784
rwrist -14.29
rhand -5.11849 1.31423
rfingers 7.12502
rthumb 20.6796 -27.604
lclavicle -4.46272e-014 -3.18055e-014
lhumerus -53.223 13.6428 64.4483
lradius 128.991
lwrist 86.3317
lhand -41.4244 41.8164
lfingers 7.12502
lthumb -14.3406 71.3011
rfemur -3.39089 8.03492 5.7212
rtibia 51.5023
rfoot -35.9742 -21.8351
rtoes -10.5352
lfemur -13.4752 -15.0258 -1.70735
ltibia 31.5028
lfoot -27.7258 -22.7437
ltoes -40.159
2050
root -0.489769 16.0877 2.05046 -4.51712 8.94806 5.22044
lowerback 3.76762 2.1176 4.62709
upperback 1.22559 3.01123 1.8401
thorax -0.710918 1.50664 -0.825086
lowerneck 20.0792 16.1105 20.3599
upperneck -13.4671 24.197 -24.8469
head -1.41085 13.2859 -11.5935
rclavicle 3.05134e-014 6.36111e-015
rhumerus -39.6213 -5.58794 -79.6283
rradius 117.916
rwrist -14.3451
rhand -4.67314 1.25208
rfingers 7.12502
rthumb 21.1074 -27.619
lclavicle 3.05134e-014 6.36111e-015
lhumerus -53.6337 13.5812 64.338
lradius 129.336
lwrist 86.3454
lhand -41.5721 42.571
lfingers 7.12502
lthumb -14.4829 72.0456
rfemur -3.31206 7.88843 5.90167
rtibia 51.4025
rfoot -35.9163 -22.0975
rtoes -10.794
lfemur -13.7005 -14.9967 -1.57221
ltibia 31.5338
lfoot -27.1334 -22.7886
ltoes -41.8635
2051
root -0.498424 16.0843 2.05003 -4.45134 9.19677 5.36224
lowerback 3.97047 2.14677 4.56571
upperback 0.967414 3.07048 1.78362
thorax -1.08742 1.52536 -0.86691
lowerneck 20.3497 15.9867 20.4844
upperneck -13.3152 24.1232 -24.8561
head -1.40976 13.259 -11.6442
rclavicle -2.04748e-014 -3.18055e-014
rhumerus -39.9261 -5.39261 -79.6632
rradius 117.984
rwrist -14.1221
rhand -4.27496 1.45777
rfingers 7.12502
rthumb 21.4899 -27.3702
lclavicle -2.04748e-014 -3.18055e-014
lhumerus -54.095 13.4853 64.2169
lradius 129.652
lwrist 86.2166
lhand -41.8587 43.3146
lfingers 7.12502
lthumb -14.759 72.7691
rfemur -3.22781 7.6994 5.76637
rtibia 51.2918
rfoot -35.9506 -22.2083
rtoes -11.3201
lfemur -13.8557 -15.0634 -1.71572
ltibia 31.5327
lfoot -26.8224 -22.745
ltoes -42.3339
2052
root -0.50377 16.0845 2.05328 -4.5057 9.49684 5.41088
lowerback 4.05459 2.17229 4.63776
upperback 0.916951 3.11409 1.73711
thorax -1.17786 1.54443 -0.961405
lowerneck 20.4243 15.9201 20.2597
upperneck -13.4076 23.983 -24.6714
head -1.53597 13.1825 -11.6001
rclavicle 2.8625e-014 -1.59028e-015
rhumerus -39.9582 -5.3375 -79.7706
rradius 118.118
rwrist -13.6256
rhand -4.08592 1.27673
rfingers 7.12502
rthumb 21.6715 -27.5304
lclavicle 2.8625e-014 -1.59028e-015
lhumerus -54.3406 13.3776 64.1445
lradius 129.959
lwrist 86.1221
lhand -41.9877 43.4779
lfingers 7.12502
lthumb -14.8833 72.9233
rfemur -2.96719 7.50045 5.73937
rtibia 51.1671
rfoot -36.096 -22.0615
rtoes -10.7627
lfemur -13.8733 -15.2934 -1.78434
ltibia 31.5117
lfoot -26.8725 -22.8527
ltoes -41.2415
2053
root -0.510438 16.0928 2.05548 -4.56622 9.92936 5.32987
lowerback 3.93223 2.1065 4.781
upperback 0.994885 3.02174 1.75926
thorax -1.02749 1.50233 -1.00684
lowerneck 20.5683 15.719 20.8251
upperneck -13.42 23.8465 -25.4233
head -1.40963 13.1723 -11.9293
rclavicle 1.89839e-014 -2.06736e-014
rhumerus -39.813 -5.22601 -79.9225
rradius 118.299
rwrist -13.46
rhand -3.68016 1.14775
rfingers 7.12502
rthumb 22.0611 -27.6139
lclavicle 1.89839e-014 -2.06736e-014
lhumerus -54.4605 13.546 64.0797
lradius 130.216
lwrist 86.098
lhand -41.6001 43.6638
lfingers 7.12502
lthumb -14.5098 73.1364
rfemur -2.66338 7.19151 5.87687
rtibia 51.0089
rfoot -36.2089 -22.0397
rtoes -10.769
lfemur -14.0455 -15.7329 -1.65251
ltibia 31.5152
lfoot -26.8165 -22.8907
ltoes -42.3112
2054
root -0.518374 16.091 2.05307 -4.60386 10.4133 5.21626
lowerback 3.85842 1.96831 4.89679
upperback 0.981389 2.83922 1.82115
thorax -1.00702 1.41143 -0.99756
lowerneck 20.7475 15.6875 20.9001
upperneck -13.4448 23.8474 -25.5299
head -1.41934 13.1887 -11.9955
rclavicle -2.0276e-014 1.90833e-014
rhumerus -39.7085 -4.99627 -79.9731
rradius 118.252
rwrist -13.6848
rhand -2.993 1.54679
rfingers 7.12502
rthumb 22.7207 -27.1355
lclavicle -2.0276e-014 1.90833e-014
lhumerus -54.648 14.064 63.9469
lradius 130.398
lwrist 85.8693
lhand -41.2534 43.9278
lfingers 7.12502
lthumb -14.1758 73.4241
rfemur -2.39831 6.80893 6.03752
rtibia 50.8607
rfoot -36.1237 -22.2236
rtoes -11.1883
lfemur -14.3271 -16.0888 -1.49431
ltibia 31.5641
lfoot -26.6738 -22.9648
ltoes -42.5714
2055
root -0.525532 16.0854 2.05077 -4.64481 10.741 4.98459
lowerback 3.85387 1.89981 5.24777
upperback 0.889981 2.76562 1.82418
thorax -1.08585 1.37091 -1.1882
lowerneck 20.9765 15.6985 20.8716
upperneck -13.5827 23.8859 -25.3617
head -1.51494 13.2006 -11.9754
rclavicle -4.3832e-014 -1.74931e-014
rhumerus -39.5829 -4.82629 -80.0784
rradius 118.065
rwrist -13.6268
rhand -2.58303 1.96019
rfingers 7.12502
rthumb 23.1141 -26.6733
lclavicle -4.3832e-014 -1.74931e-014
lhumerus -54.8567 14.37 63.7835
lradius 130.554
lwrist 85.4527
lhand -40.8287 43.76
lfingers 7.12502
lthumb -13.7665 73.2845
rfemur -2.21417 6.56471 6.34139
rtibia 50.7374
rfoot -35.986 -22.5158
rtoes -11.6213
lfemur -14.5194 -16.2496 -1.23612
ltibia 31.5831
lfoot -26.7741 -23.1407
ltoes -42.1134
2056
root -0.532711 16.0931 2.05112 -4.69511 10.9215 4.80223
lowerback 3.87654 1.92792 5.54924
upperback 0.852076 2.81854 1.83904
thorax -1.1206 1.3951 -1.34402
lowerneck 21.0278 15.6715 20.7969
upperneck -13.7693 23.8223 -25.2465
head -1.61816 13.1597 -11.9615
rclavicle 2.89232e-014 3.33958e-014
rhumerus -39.4183 -4.73597 -80.1549
rradius 117.984
rwrist -13.2312
rhand -2.24326 2.3358
rfingers 7.12502
rthumb 23.4401 -26.2565
lclavicle 2.89232e-014 3.33958e-014
lhumerus -54.9718 14.3696 63.8507
lradius 130.682
lwrist 84.9004
lhand -40.377 43.2833
lfingers 7.12502
lthumb -13.3312 72.8368
rfemur -2.06493 6.44299 6.60887
rtibia 50.6406
rfoot -36.038 -22.6152
rtoes -11.8366
lfemur -14.5472 -16.5191 -0.993307
ltibia 31.4979
lfoot -27.1643 -23.2124
ltoes -41.6914
2057
root -0.536407 16.099 2.05481 -4.64364 11.1941 5.2547
lowerback 3.85636 1.96521 5.08971
upperback 0.872586 2.84713 1.7998
thorax -1.10694 1.41125 -1.12934
lowerneck 20.8813 15.6568 20.6499
upperneck -13.8065 23.7383 -25.1935
head -1.65165 13.1117 -11.9244
rclavicle -3.18055e-015 -9.54166e-015
rhumerus -39.3074 -4.58781 -80.066
rradius 117.954
rwrist -13.0143
rhand -1.55109 3.08315
rfingers 7.12502
rthumb 24.1039 -25.4228
lclavicle -3.18055e-015 -9.54166e-015
lhumerus -55.0143 14.4423 64.0302
lradius 130.674
lwrist 83.8164
lhand -39.3896 43.3546
lfingers 7.12502
lthumb -12.3793 72.968
rfemur -1.87475 6.1724 6.0745
rtibia 50.582
rfoot -36.1322 -22.4625
rtoes -11.8335
lfemur -14.4778 -16.8766 -1.52498
ltibia 31.3254
lfoot -27.2128 -23.1911
ltoes -41.8662
2058
root -0.539265 16.097 2.05924 -4.59597 11.4973 5.93122
lowerback 3.89932 2.01354 4.472
upperback 0.839729 2.88853 1.62977
thorax -1.18442 1.43145 -0.965194
lowerneck 20.8554 15.5869 20.7366
upperneck -13.7153 23.6746 -25.187
head -1.62654 13.0755 -11.9307
rclavicle 8.64713e-015 -2.54444e-014
rhumerus -39.3583 -4.56659 -80.0184
rradius 117.913
rwrist -12.9811
rhand -0.805475 3.85728
rfingers 7.12502
rthumb 24.8186 -24.5521
lclavicle 8.64713e-015 -2.54444e-014
lhumerus -55.256 14.3833 63.983
lradius 130.743
lwrist 82.4761
lhand -37.8576 43.9808
lfingers 7.12502
lthumb -10.902 73.6777
rfemur -1.62132 5.88318 5.25965
rtibia 50.5351
rfoot -36.2406 -22.3073
rtoes -11.8487
lfemur -14.3013 -17.2295 -2.36809
ltibia 31.1028
lfoot -26.537 -22.8982
ltoes -42.4015
2059
root -0.545333 16.0944 2.06184 -4.73397 11.7074 6.01742
lowerback 4.06155 2.05397 4.52296
upperback 0.809393 2.95442 1.56225
thorax -1.297 1.46142 -1.07306
lowerneck 20.8209 15.5148 20.754
upperneck -13.6471 23.5839 -25.17
head -1.62314 13.0271 -11.9304
rclavicle 1.53064e-014 1.27222e-014
rhumerus -39.3125 -4.64364 -79.97
rradius 117.924
rwrist -13.0814
rhand 0.108697 4.22997
rfingers 7.12502
rthumb 25.6945 -24.0558
lclavicle 1.53064e-014 1.27222e-014
lhumerus -55.5657 14.2438 64.0034
lradius 130.993
lwrist 81.5034
lhand -37.1463 43.7785
lfingers 7.12502
lthumb -10.2158 73.5105
rfemur -1.31538 5.76105 5.19964
rtibia 50.4616
rfoot -36.3502 -22.2637
rtoes -11.7118
lfemur -14.0345 -17.5205 -2.51299
ltibia 30.8514
lfoot -26.05 -22.4941
ltoes -42.8166
